<?xml version="1.0" encoding="UTF-8"?>
<!-- Generated by jsxcad -->
<!DOCTYPE svg PUBLIC "-//W3C//DTD SVG 1.1 Tiny//EN" "http://www.w3.org/Graphics/SVG/1.1/DTD/svg11-tiny.dtd">
<svg viewBox="-250 -250 500 500" width="500" height="500" xmlns="http://www.w3.org/2000/svg"><path d="M-197.99260639167073,4.47444619822639L-28.32984071841182,-170.51786426576103L-80.35966155650055,-149.08839277628252zM-197.99260639167073,4.47444619822639L-80.35966155650055,-149.08839277628252L-127.26355981407065,-118.2516195049977zM-197.99260639167073,4.47444619822639L24.691159708363458,-180.62432578111603L-28.32984071841182,-170.51786426576103zM-75.19119400402954,72.66935855467473L68.1132135943435,-71.82551145265371L-67.92138174751634,-35.01633037383414zM-197.99260639167073,4.47444619822639L-127.26355981407065,-118.2516195049977L-165.08950045331102,-80.30995853360352z" style="fill:rgb(83,212,212)"/><path d="M93.08138759070428,-12.419728409512587L68.1132135943435,-71.82551145265371L75.68052173565464,35.86174485062159z" style="fill:rgb(247,158,158)"/><path d="M-197.99260639167073,4.47444619822639L74.13833413846443,-177.8507907661799L24.691159708363458,-180.62432578111603zM-197.99260639167073,4.47444619822639L-165.08950045331102,-80.30995853360352L-189.92076053114374,-38.15265339810022z" style="fill:rgb(83,212,212)"/><path d="M93.08138759070428,-12.419728409512587L75.68052173565464,35.86174485062159L102.81316428340055,95.13183968718735z" style="fill:rgb(247,158,158)"/><path d="M102.81316428340055,95.13183968718735L-75.19119400402954,72.66935855467473L-40.41026559232399,127.79918997388731z" style="fill:rgb(127,37,217)"/><path d="M-197.99260639167073,4.47444619822639L114.84341544561478,-161.21904064357483L74.13833413846443,-177.8507907661799zM-75.19119400402954,72.66935855467473L75.68052173565464,35.86174485062159L68.1132135943435,-71.82551145265371z" style="fill:rgb(83,212,212)"/><path d="M102.81316428340055,95.13183968718735L75.68052173565464,35.86174485062159L-75.19119400402954,72.66935855467473z" style="fill:rgb(127,37,217)"/><path d="M-197.99260639167073,4.47444619822639L141.16558499001226,-130.84356552177493L114.84341544561478,-161.21904064357483z" style="fill:rgb(83,212,212)"/><path d="M-113.46783335521391,127.41600662865277L-186.24263761498352,42.79948632854042L-146.14850865429662,98.23822669235437z" style="fill:rgb(35,45,161)"/><path d="M162.97801672541252,-66.08544838375202L147.70421194890045,-88.68076467524415L170.09179155673817,-23.526624162000907zM162.97801672541252,-66.08544838375202L141.16558499001226,-130.84356552177493L147.70421194890045,-88.68076467524415z" style="fill:rgb(247,158,158)"/><path d="M-197.99260639167073,4.47444619822639L147.70421194890045,-88.68076467524415L141.16558499001226,-130.84356552177493zM-197.99260639167073,4.47444619822639L-186.24263761498352,42.79948632854042L-153.39276963127443,71.227091553876z" style="fill:rgb(83,212,212)"/><path d="M-113.46783335521391,127.41600662865277L-153.39276963127443,71.227091553876L-186.24263761498352,42.79948632854042z" style="fill:rgb(35,45,161)"/><path d="M-63.129626375735185,141.66172644756278L-153.39276963127443,71.227091553876L-113.46783335521391,127.41600662865277z" style="fill:rgb(67,34,190)"/><path d="M-197.99260639167073,4.47444619822639L130.76687518378503,-39.21801105064036L147.70421194890045,-88.68076467524415z" style="fill:rgb(83,212,212)"/><path d="M170.09179155673817,-23.526624162000907L130.76687518378503,-39.21801105064036L155.00114802883755,25.405443279567738z" style="fill:rgb(240,125,187)"/><path d="M-197.99260639167073,4.47444619822639L-153.39276963127443,71.227091553876L-101.37759156968869,84.22006240341256z" style="fill:rgb(83,212,212)"/><path d="M170.09179155673817,-23.526624162000907L147.70421194890045,-88.68076467524415L130.76687518378503,-39.21801105064036z" style="fill:rgb(240,125,187)"/><path d="M-197.99260639167073,4.47444619822639L90.31297294020276,10.486516882017117L130.76687518378503,-39.21801105064036z" style="fill:rgb(83,212,212)"/><path d="M-1.2490148719499279,137.11994225472804L-101.37759156968869,84.22006240341256L-63.129626375735185,141.66172644756278z" style="fill:rgb(106,33,210)"/><path d="M-63.129626375735185,141.66172644756278L-101.37759156968869,84.22006240341256L-153.39276963127443,71.227091553876z" style="fill:rgb(67,34,190)"/><path d="M-197.99260639167073,4.47444619822639L-101.37759156968869,84.22006240341256L-36.41443263588113,77.92816010211455z" style="fill:rgb(83,212,212)"/><path d="M155.00114802883755,25.405443279567738L90.31297294020276,10.486516882017117L117.6420562192335,73.70124869381202z" style="fill:rgb(219,93,209)"/><path d="M-197.99260639167073,4.47444619822639L31.366383525387516,52.00869946518279L90.31297294020276,10.486516882017117zM-197.99260639167073,4.47444619822639L-36.41443263588113,77.92816010211455L31.366383525387516,52.00869946518279z" style="fill:rgb(83,212,212)"/><path d="M155.00114802883755,25.405443279567738L130.76687518378503,-39.21801105064036L90.31297294020276,10.486516882017117z" style="fill:rgb(219,93,209)"/><path d="M62.60518622468507,113.25729198819073L-36.41443263588113,77.92816010211455L-1.2490148719499279,137.11994225472804z" style="fill:rgb(148,44,221)"/><path d="M117.6420562192335,73.70124869381202L31.366383525387516,52.00869946518279L62.60518622468507,113.25729198819073z" style="fill:rgb(187,64,221)"/><path d="M-1.2490148719499279,137.11994225472804L-36.41443263588113,77.92816010211455L-101.37759156968869,84.22006240341256z" style="fill:rgb(106,33,210)"/><path d="M117.6420562192335,73.70124869381202L90.31297294020276,10.486516882017117L31.366383525387516,52.00869946518279z" style="fill:rgb(187,64,221)"/><path d="M62.60518622468507,113.25729198819073L31.366383525387516,52.00869946518279L-36.41443263588113,77.92816010211455z" style="fill:rgb(148,44,221)"/></svg>
